<svg version="1.1" xmlns="http://www.w3.org/2000/svg" width="40" height="40">
<path d="M0 0 C4.31633181 3.18586395 7.91120739 6.79612218 9.625 11.9375 C10.57416973 24.58701198 10.57416973 24.58701198 6.625 29.9375 C1.6016523 34.9608477 -1.93953616 37.07809677 -9.1875 37.1875 C-15.00495029 37.11049404 -18.78081164 36.53168836 -23.02734375 32.28515625 C-28.10018167 26.63938605 -28.68170367 22.40870416 -28.58203125 14.87890625 C-28.18423016 9.22712847 -25.94917386 6.28572704 -21.875 2.625 C-15.80117425 -2.44984125 -7.33000764 -2.307595 0 0 Z " fill="#B8DEBB" transform="translate(29.375,2.0625)"/>
<path d="M0 0 C4.31633181 3.18586395 7.91120739 6.79612218 9.625 11.9375 C10.57416973 24.58701198 10.57416973 24.58701198 6.625 29.9375 C1.6016523 34.9608477 -1.93953616 37.07809677 -9.1875 37.1875 C-15.00495029 37.11049404 -18.78081164 36.53168836 -23.02734375 32.28515625 C-28.10018167 26.63938605 -28.68170367 22.40870416 -28.58203125 14.87890625 C-28.18423016 9.22712847 -25.94917386 6.28572704 -21.875 2.625 C-15.80117425 -2.44984125 -7.33000764 -2.307595 0 0 Z M-22.375 4.9375 C-25.77344605 8.69539708 -27.66506776 12.34038069 -27.9375 17.4375 C-27.56031694 23.50386085 -25.25346939 28.15295408 -20.875 32.3125 C-15.59401525 35.74514009 -11.67203519 36.82093397 -5.375 35.9375 C-2.48539367 34.83897197 -0.06253151 33.50115469 2.625 31.9375 C1.14705876 28.26283735 -0.84032261 26.7562969 -3.9375 24.375 C-8.90553992 19.66173135 -9.24868378 15.4051455 -9.4375 8.875 C-9.48202714 5.88780939 -9.45098746 2.92532684 -9.375 -0.0625 C-14.97156332 -0.37342018 -18.13335198 1.41419559 -22.375 4.9375 Z " fill="#748D79" transform="translate(29.375,2.0625)"/>
<path d="M0 0 C6.10269989 1.01711665 9.6242896 1.9633308 13.48828125 6.90234375 C15.9705674 10.65723857 17 12.35064383 17 17 C11.39 17 5.78 17 0 17 C0 11.39 0 5.78 0 0 Z " fill="#FCC19A" transform="translate(21,2)"/>
<path d="M0 0 C5.28 0 10.56 0 16 0 C14.25892857 9.24107143 14.25892857 9.24107143 11 12 C9.16364422 10.19047409 7.33083792 8.37759362 5.5 6.5625 C4.97535156 6.04623047 4.45070313 5.52996094 3.91015625 4.99804688 C2.58775448 3.68423213 1.29164432 2.34406495 0 1 C0 0.67 0 0.34 0 0 Z " fill="#89B5EE" transform="translate(22,20)"/>
</svg>
