
<svg version="1.1" xmlns="http://www.w3.org/2000/svg" width="48" height="48">
<path d="M0 0 C1.051875 -0.00257813 2.10375 -0.00515625 3.1875 -0.0078125 C4.280625 -0.00007812 5.37375 0.00765625 6.5 0.015625 C7.593125 0.00789062 8.68625 0.00015625 9.8125 -0.0078125 C10.864375 -0.00523437 11.91625 -0.00265625 13 0 C14.43859375 0.00338379 14.43859375 0.00338379 15.90625 0.00683594 C18.5 0.265625 18.5 0.265625 22.5 2.265625 C22.5 13.485625 22.5 24.705625 22.5 36.265625 C18.29572453 37.94733519 16.60063273 38.5202129 12.375 38.53125 C11.42109375 38.53382812 10.4671875 38.53640625 9.484375 38.5390625 C8.49953125 38.53132813 7.5146875 38.52359375 6.5 38.515625 C5.02273437 38.52722656 5.02273437 38.52722656 3.515625 38.5390625 C2.08476562 38.53519531 2.08476562 38.53519531 0.625 38.53125 C-0.23867188 38.52899414 -1.10234375 38.52673828 -1.9921875 38.52441406 C-4.5 38.265625 -4.5 38.265625 -9.5 36.265625 C-9.5 25.045625 -9.5 13.825625 -9.5 2.265625 C-5.59942863 0.31533932 -4.17079939 0.00981035 0 0 Z " fill="#1B59B7" transform="translate(17.5,4.734375)"/>
<path d="M0 0 C1.051875 -0.00257813 2.10375 -0.00515625 3.1875 -0.0078125 C4.280625 -0.00007812 5.37375 0.00765625 6.5 0.015625 C7.593125 0.00789062 8.68625 0.00015625 9.8125 -0.0078125 C10.864375 -0.00523437 11.91625 -0.00265625 13 0 C14.43859375 0.00338379 14.43859375 0.00338379 15.90625 0.00683594 C18.56959508 0.27256879 20.21617733 0.90960529 22.5 2.265625 C22.55389087 4.22366007 22.59274217 6.18211409 22.625 8.140625 C22.64820313 9.23117187 22.67140625 10.32171875 22.6953125 11.4453125 C22.5 14.265625 22.5 14.265625 20.5 16.265625 C11.56190352 18.25186866 1.4671113 17.95753279 -7.5 16.265625 C-9.5 14.265625 -9.5 14.265625 -9.6953125 11.4453125 C-9.67210937 10.35476563 -9.64890625 9.26421875 -9.625 8.140625 C-9.60695313 7.04492188 -9.58890625 5.94921875 -9.5703125 4.8203125 C-9.54710937 3.97726562 -9.52390625 3.13421875 -9.5 2.265625 C-6.23340755 0.32608573 -3.77581462 0.00888128 0 0 Z " fill="#2C7AD3" transform="translate(17.5,4.734375)"/>
<path d="M0 0 C1.14339844 0.32484375 2.28679688 0.6496875 3.46484375 0.984375 C7.88317005 2.08530949 12.02621783 2.29926279 16.5625 2.25 C17.63661133 2.26160156 17.63661133 2.26160156 18.73242188 2.2734375 C23.50960235 2.25605013 27.46440278 1.50193233 32 0 C32 3.63 32 7.26 32 11 C27.79572453 12.68171019 26.10063273 13.2545879 21.875 13.265625 C20.92109375 13.26820312 19.9671875 13.27078125 18.984375 13.2734375 C17.99953125 13.26570313 17.0146875 13.25796875 16 13.25 C14.52273437 13.26160156 14.52273437 13.26160156 13.015625 13.2734375 C11.58476562 13.26957031 11.58476562 13.26957031 10.125 13.265625 C9.26132812 13.26336914 8.39765625 13.26111328 7.5078125 13.25878906 C5 13 5 13 0 11 C0 7.37 0 3.74 0 0 Z " fill="#103F8C" transform="translate(8,30)"/>
<path d="M0 0 C1.09763672 -0.01224609 2.19527344 -0.02449219 3.32617188 -0.03710938 C4.91075195 -0.04000977 4.91075195 -0.04000977 6.52734375 -0.04296875 C7.492771 -0.04707764 8.45819824 -0.05118652 9.45288086 -0.05541992 C12.13403101 0.19415856 13.76768962 0.82009786 16.0625 2.1875 C16.0625 2.8475 16.0625 3.5075 16.0625 4.1875 C5.37539571 7.1356667 -5.25039571 7.1356667 -15.9375 4.1875 C-15.6075 3.1975 -15.2775 2.2075 -14.9375 1.1875 C-10.07807848 -0.43230717 -5.08821595 0.00297731 0 0 Z " fill="#41A2ED" transform="translate(23.9375,4.8125)"/>
</svg>
