
<svg xmlns="http://www.w3.org/2000/svg"  viewBox="0 0 64 64" width="64px" height="64px"><path fill="#8d6c9f" d="M51 45.833c-.552 0-1 .448-1 1v2c0 .552.448 1 1 1s1-.448 1-1v-2C52 46.281 51.552 45.833 51 45.833zM46 45.833c-.552 0-1 .448-1 1v2c0 .552.448 1 1 1s1-.448 1-1v-2C47 46.281 46.552 45.833 46 45.833zM41 45.833c-.552 0-1 .448-1 1v2c0 .552.448 1 1 1s1-.448 1-1v-2C42 46.281 41.552 45.833 41 45.833zM36 45.833c-.552 0-1 .448-1 1v2c0 .552.448 1 1 1s1-.448 1-1v-2C37 46.281 36.552 45.833 36 45.833zM31 45.833c-.552 0-1 .448-1 1v2c0 .552.448 1 1 1s1-.448 1-1v-2C32 46.281 31.552 45.833 31 45.833z"/><path fill="#85cbf8" d="M17,59c-0.552,0-1-0.448-1-1V7c0-0.552,0.448-1,1-1h8c0.552,0,1,0.448,1,1v45.5 c0,0.276,0.224,0.5,0.5,0.5H50c0.552,0,1,0.448,1,1v4c0,0.552-0.448,1-1,1H17z"/><path fill="#9fddff" d="M16,6.671v51.075c2.903-0.023,5.25-2.379,5.25-5.287v-40.5C21.25,9.05,18.903,6.694,16,6.671z"/><path fill="#8d6c9f" d="M21 17c-.553 0-1-.448-1-1v-4c0-.552.447-1 1-1s1 .448 1 1v4C22 16.552 21.553 17 21 17zM21 29c-.553 0-1-.448-1-1v-8c0-.552.447-1 1-1s1 .448 1 1v8C22 28.552 21.553 29 21 29z"/><path fill="#8d6c9f" d="M25,7v45.5c0,0.828,0.672,1.5,1.5,1.5H50v4H25h-2h-6V7H25 M25,5h-8c-1.105,0-2,0.895-2,2v51 c0,1.105,0.895,2,2,2h6h2h25c1.105,0,2-0.895,2-2v-4c0-1.105-0.895-2-2-2H27V7C27,5.895,26.105,5,25,5L25,5z"/></svg>