
<svg version="1.1" id="Layer_1" xmlns="http://www.w3.org/2000/svg" xmlns:xlink="http://www.w3.org/1999/xlink" x="0px" y="0px"
	 width="100%" viewBox="0 0 100 100" enable-background="new 0 0 100 100" xml:space="preserve">
<path fill="#000000" opacity="1.000000" stroke="none" 
	d="
M59.000000,101.000000 
	C39.333336,101.000000 20.166674,101.000000 1.000008,101.000000 
	C1.000005,67.666679 1.000005,34.333351 1.000003,1.000021 
	C34.333317,1.000014 67.666634,1.000014 100.999969,1.000007 
	C100.999977,34.333313 100.999977,67.666626 100.999985,100.999969 
	C87.166664,101.000000 73.333336,101.000000 59.000000,101.000000 
M48.500000,12.988259 
	C38.339272,12.988309 28.174366,13.156521 18.019890,12.904530 
	C14.032978,12.805592 12.877654,14.070359 12.907086,18.031227 
	C13.075409,40.683384 12.985895,63.337429 13.000982,85.990822 
	C13.001607,86.929031 13.172220,87.867134 13.254753,88.714111 
	C38.650040,88.714111 63.709057,88.714111 89.009850,88.714111 
	C89.009850,64.454987 88.974289,40.491848 89.049187,16.529057 
	C89.060089,13.038973 87.036118,12.956196 84.479431,12.966964 
	C72.819794,13.016071 61.159840,12.988358 48.500000,12.988259 
z"/>
<path fill="#CAD3D7" opacity="1.000000" stroke="none" 
	d="
M49.000000,12.988259 
	C61.159840,12.988358 72.819794,13.016071 84.479431,12.966964 
	C87.036118,12.956196 89.060089,13.038973 89.049187,16.529057 
	C88.974289,40.491848 89.009850,64.454987 89.009850,88.714111 
	C63.709057,88.714111 38.650040,88.714111 13.254753,88.714111 
	C13.172220,87.867134 13.001607,86.929031 13.000982,85.990822 
	C12.985895,63.337429 13.075409,40.683384 12.907086,18.031227 
	C12.877654,14.070359 14.032978,12.805592 18.019890,12.904530 
	C28.174366,13.156521 38.339272,12.988309 49.000000,12.988259 
M59.499992,28.056273 
	C45.730633,28.056273 31.961273,28.056273 18.082214,28.056273 
	C18.082214,47.012516 18.082214,65.397896 18.082214,83.831993 
	C40.246555,83.831993 62.101757,83.831993 83.823654,83.831993 
	C83.823654,65.063187 83.823654,46.689587 83.823654,28.056276 
	C75.783043,28.056276 68.141510,28.056276 59.499992,28.056273 
M26.186857,20.424067 
	C26.726067,22.948526 27.984365,24.601458 30.633816,22.976757 
	C31.378538,22.520081 31.943722,20.348509 31.503231,19.639334 
	C29.988800,17.201149 28.055443,17.441576 26.186857,20.424067 
M20.504040,18.074308 
	C19.881479,19.571110 19.258921,21.067913 18.636360,22.564714 
	C20.061417,22.568903 21.486473,22.573093 22.911530,22.577284 
	C22.354496,21.075411 21.797464,19.573536 20.504040,18.074308 
z"/>
<path fill="#273438" opacity="1.000000" stroke="none" 
	d="
M59.999985,28.056274 
	C68.141510,28.056276 75.783043,28.056276 83.823654,28.056276 
	C83.823654,46.689587 83.823654,65.063187 83.823654,83.831993 
	C62.101757,83.831993 40.246555,83.831993 18.082214,83.831993 
	C18.082214,65.397896 18.082214,47.012516 18.082214,28.056273 
	C31.961273,28.056273 45.730633,28.056273 59.999985,28.056274 
M45.271870,69.164314 
	C46.673203,68.720863 49.067936,68.592064 49.323357,67.785652 
	C52.106937,58.997387 54.555695,50.103069 57.087173,41.267052 
	C53.525219,39.554241 52.699341,41.548763 52.007450,44.054310 
	C49.763412,52.180630 47.435928,60.283905 45.271870,69.164314 
M68.250237,61.730076 
	C69.527809,60.960728 70.861664,60.270184 72.071625,59.406155 
	C74.869324,57.408325 75.090485,54.967102 72.288704,53.032066 
	C69.064415,50.805229 65.488686,49.087234 61.976929,47.098015 
	C59.108227,53.489979 66.123138,53.262909 67.668694,56.357563 
	C65.311531,59.029320 59.395058,59.139816 62.115849,65.168755 
	C64.154037,64.015610 65.871788,63.043755 68.250237,61.730076 
M28.046751,54.754158 
	C28.486280,56.075813 28.521774,57.957718 29.437952,58.618439 
	C32.733547,60.995140 36.326393,62.959656 39.950104,65.167145 
	C42.790066,59.010269 36.075825,59.089985 34.623405,55.946941 
	C36.621220,53.158348 42.689167,53.204220 39.955128,46.989529 
	C35.970440,49.363235 32.076305,51.682999 28.046751,54.754158 
z"/>
<path fill="#94A8B1" opacity="1.000000" stroke="none" 
	d="
M26.274681,20.065775 
	C28.055443,17.441576 29.988800,17.201149 31.503231,19.639334 
	C31.943722,20.348509 31.378538,22.520081 30.633816,22.976757 
	C27.984365,24.601458 26.726067,22.948526 26.274681,20.065775 
z"/>
<path fill="#95A8B1" opacity="1.000000" stroke="none" 
	d="
M20.872236,18.072987 
	C21.797464,19.573536 22.354496,21.075411 22.911530,22.577284 
	C21.486473,22.573093 20.061417,22.568903 18.636360,22.564714 
	C19.258921,21.067913 19.881479,19.571110 20.872236,18.072987 
z"/>
<path fill="#71F206" opacity="1.000000" stroke="none" 
	d="
M45.206226,68.780182 
	C47.435928,60.283905 49.763412,52.180630 52.007450,44.054310 
	C52.699341,41.548763 53.525219,39.554241 57.087173,41.267052 
	C54.555695,50.103069 52.106937,58.997387 49.323357,67.785652 
	C49.067936,68.592064 46.673203,68.720863 45.206226,68.780182 
z"/>
<path fill="#6FEE07" opacity="1.000000" stroke="none" 
	d="
M67.919891,61.900990 
	C65.871788,63.043755 64.154037,64.015610 62.115849,65.168755 
	C59.395058,59.139816 65.311531,59.029320 67.668694,56.357563 
	C66.123138,53.262909 59.108227,53.489979 61.976929,47.098015 
	C65.488686,49.087234 69.064415,50.805229 72.288704,53.032066 
	C75.090485,54.967102 74.869324,57.408325 72.071625,59.406155 
	C70.861664,60.270184 69.527809,60.960728 67.919891,61.900990 
z"/>
<path fill="#70F007" opacity="1.000000" stroke="none" 
	d="
M28.114460,54.378460 
	C32.076305,51.682999 35.970440,49.363235 39.955128,46.989529 
	C42.689167,53.204220 36.621220,53.158348 34.623405,55.946941 
	C36.075825,59.089985 42.790066,59.010269 39.950104,65.167145 
	C36.326393,62.959656 32.733547,60.995140 29.437952,58.618439 
	C28.521774,57.957718 28.486280,56.075813 28.114460,54.378460 
z"/>
</svg>