
<svg xmlns="http://www.w3.org/2000/svg"  viewBox="0 0 48 48" width="48px" height="48px"><rect width="3" height="13" x="22.5" y="7" fill="#6c19ff"/><circle cx="39.022" cy="31.958" r="3" fill="#3dd9eb"/><rect width="2.999" height="13" x="31.779" y="22.415" fill="#6c19ff" transform="rotate(-62.089 33.276 28.914)"/><circle cx="24" cy="41" r="3" fill="#3dd9eb"/><rect width="3" height="13" x="22.5" y="28" fill="#6c19ff"/><circle cx="8.978" cy="31.958" r="3" fill="#3dd9eb"/><rect width="13" height="2.999" x="8.221" y="27.415" fill="#6c19ff" transform="rotate(-27.92 14.72 28.915)"/><circle cx="8.978" cy="16.042" r="3" fill="#3dd9eb"/><rect width="2.999" height="13" x="13.222" y="12.585" fill="#6c19ff" transform="rotate(-62.089 14.72 19.084)"/><circle cx="39.022" cy="16.042" r="3" fill="#3dd9eb"/><rect width="13" height="2.999" x="26.778" y="17.585" fill="#6c19ff" transform="rotate(-27.92 33.276 19.086)"/><circle cx="24" cy="7" r="3" fill="#3dd9eb"/><path fill="#00b3d7" d="M22.5,9.584C22.943,9.842,23.451,10,24,10s1.057-0.158,1.5-0.416V7h-3V9.584z"/><path fill="#00b3d7" d="M25.5,38.416C25.057,38.158,24.549,38,24,38s-1.057,0.158-1.5,0.416V41h3V38.416z"/><path fill="#00b3d7" d="M38.32,14.717l-2.284,1.21c-0.02,0.512,0.078,1.034,0.335,1.52c0.257,0.485,0.635,0.86,1.07,1.131 l2.283-1.21L38.32,14.717z"/><path fill="#00b3d7" d="M9.68,33.283l2.284-1.21c0.02-0.512-0.078-1.034-0.335-1.52c-0.257-0.485-0.635-0.86-1.07-1.131 l-2.284,1.21L9.68,33.283z"/><path fill="#00b3d7" d="M8.275,17.367l2.283,1.21c0.435-0.271,0.813-0.645,1.07-1.131c0.257-0.485,0.355-1.008,0.335-1.52 l-2.284-1.21L8.275,17.367z"/><path fill="#00b3d7" d="M39.725,30.633l-2.284-1.21c-0.435,0.271-0.813,0.645-1.07,1.131 c-0.257,0.485-0.355,1.008-0.335,1.52l2.284,1.21L39.725,30.633z"/><circle cx="24" cy="24" r="8" fill="#3dd9eb"/></svg>