
<svg version="1.1" xmlns="http://www.w3.org/2000/svg" width="100" height="100">
<path d="M0 0 C3.39725438 2.23503578 3.91801511 3.63422127 4.8125 7.625 C5.66994077 11.33022925 5.66994077 11.33022925 9.375 12.625 C12.90184744 13.38572816 12.90184744 13.38572816 15 11.625 C15.66 11.08875 16.32 10.5525 17 10 C21.39593437 9.36059136 23.27096589 9.48812498 26.9375 12.0625 C29.51187502 15.72903411 29.63940864 17.60406563 29 22 C28.46375 22.66 27.9275 23.32 27.375 24 C25.63447923 26.08696035 25.63447923 26.08696035 26.25 29.5625 C27.59674228 33.06188618 27.59674228 33.06188618 30.078125 34.01171875 C32.48190578 34.77640184 32.48190578 34.77640184 34.90625 35.296875 C37 36 37 36 39 39 C39.6655574 45.98835275 39.6655574 45.98835275 37.4375 49.375 C35 51 35 51 31.375 51.8125 C27.66977075 52.66994077 27.66977075 52.66994077 26.375 56.375 C25.61427184 59.90184744 25.61427184 59.90184744 27.375 62 C27.91125 62.66 28.4475 63.32 29 64 C29.63940864 68.39593437 29.51187502 70.27096589 26.9375 73.9375 C23.27096589 76.51187502 21.39593437 76.63940864 17 76 C16.34 75.46375 15.68 74.9275 15 74.375 C12.91303965 72.63447923 12.91303965 72.63447923 9.4375 73.25 C5.93238324 74.59177599 5.93238324 74.59177599 5.0234375 77.078125 C4.28452058 79.48193397 4.28452058 79.48193397 3.80078125 81.90625 C3 84 3 84 1.13671875 85.26171875 C-2.80823373 86.62478277 -6.472797 86.66041211 -10.3125 85 C-12.88403933 81.95224968 -13.23462788 78.89064163 -14 75 C-17.28704716 73.71514394 -17.28704716 73.71514394 -21 73 C-23.0399719 74.36323743 -23.0399719 74.36323743 -25 76 C-29.39593437 76.63940864 -31.27096589 76.51187502 -34.9375 73.9375 C-37.51187502 70.27096589 -37.63940864 68.39593437 -37 64 C-36.46375 63.34 -35.9275 62.68 -35.375 62 C-33.63447923 59.91303965 -33.63447923 59.91303965 -34.25 56.4375 C-35.59674228 52.93811382 -35.59674228 52.93811382 -38.078125 51.98828125 C-40.48190578 51.22359816 -40.48190578 51.22359816 -42.90625 50.703125 C-45 50 -45 50 -47 47 C-47.31313655 43.05447942 -47.53193371 40.26334255 -46 36.625 C-42.93729369 34.13655112 -39.8521863 33.75780714 -36 33 C-34.71514394 29.71295284 -34.71514394 29.71295284 -34 26 C-35.36323743 23.9600281 -35.36323743 23.9600281 -37 22 C-37.63940864 17.60406563 -37.51187502 15.72903411 -34.9375 12.0625 C-31.27096589 9.48812498 -29.39593437 9.36059136 -25 10 C-24.34 10.53625 -23.68 11.0725 -23 11.625 C-20.91303965 13.36552077 -20.91303965 13.36552077 -17.4375 12.75 C-13.93811382 11.40325772 -13.93811382 11.40325772 -12.98828125 8.921875 C-12.22359816 6.51809422 -12.22359816 6.51809422 -11.703125 4.09375 C-9.96353919 -1.08634998 -4.58821492 -0.73226056 0 0 Z M-8 5 C-8.47099499 6.44170418 -8.87879034 7.90443867 -9.25 9.375 C-10.36944421 12.91334374 -10.70620941 13.78455357 -13.8125 16.0625 C-17.16504127 17.04854155 -19.53386365 17.45210474 -23 17 C-24.34275169 16.01268258 -25.67732273 15.01405257 -27 14 C-30.00388632 14.26504879 -30.83304275 14.83304275 -33 17 C-32.61121812 20.01305957 -31.73543126 21.39685311 -30 24 C-29.46508811 28.81420697 -30.12179781 32.07517883 -33 36 C-35.32885427 36.96930691 -37.57800278 37.61450548 -40.0390625 38.1640625 C-42.16206134 38.80850549 -42.16206134 38.80850549 -42.8359375 40.8359375 C-43.02010784 43.26523198 -43.01470144 44.77145012 -42 47 C-40.00657111 47.92017463 -40.00657111 47.92017463 -37.625 48.375 C-34.04310955 49.42849719 -33.23681146 49.67707528 -30.9375 52.8125 C-29.95145845 56.16504127 -29.54789526 58.53386365 -30 62 C-30.98731742 63.34275169 -31.98594743 64.67732273 -33 66 C-32.73495121 69.00388632 -32.16695725 69.83304275 -30 72 C-26.98694043 71.61121812 -25.60314689 70.73543126 -23 69 C-18.18579303 68.46508811 -14.92482117 69.12179781 -11 72 C-9.61958106 74.91594112 -8.74867925 77.8673684 -8 81 C-3.89776415 82.01540112 -3.89776415 82.01540112 0 81 C0.47099499 79.55829582 0.87879034 78.09556133 1.25 76.625 C2.36944421 73.08665626 2.70620941 72.21544643 5.8125 69.9375 C9.16504127 68.95145845 11.53386365 68.54789526 15 69 C16.34275169 69.98731742 17.67732273 70.98594743 19 72 C22.00388632 71.73495121 22.83304275 71.16695725 25 69 C24.61121812 65.98694043 23.73543126 64.60314689 22 62 C21.46508811 57.18579303 22.12179781 53.92482117 25 50 C27.91594112 48.61958106 30.8673684 47.74867925 34 47 C35.01540112 42.89776415 35.01540112 42.89776415 34 39 C32.55829582 38.52900501 31.09556133 38.12120966 29.625 37.75 C26.08665626 36.63055579 25.21544643 36.29379059 22.9375 33.1875 C21.95145845 29.83495873 21.54789526 27.46613635 22 24 C22.98731742 22.65724831 23.98594743 21.32267727 25 20 C24.73495121 16.99611368 24.16695725 16.16695725 22 14 C18.98694043 14.38878188 17.60314689 15.26456874 15 17 C10.18579303 17.53491189 6.92482117 16.87820219 3 14 C1.61958106 11.08405888 0.74867925 8.1326316 0 5 C-4.10223585 3.98459888 -4.10223585 3.98459888 -8 5 Z " fill="#6E47FF" transform="translate(54,7)"/>
<path d="M0 0 C8.70208569 4.50868932 13.11592974 10.16028921 16.1875 19.375 C17.08930779 29.22096697 15.50041002 36.36866522 9.4375 44.1875 C5.15653771 48.88239757 -1.0677137 52.03200906 -7.4140625 52.61328125 C-17.11913777 52.85151953 -24.08169654 50.67956673 -31.30859375 44.08984375 C-36.79122113 37.83822448 -38.17757454 30.59269971 -38.08984375 22.51171875 C-37.42226178 14.96146071 -33.48011524 8.34545984 -27.8125 3.375 C-19.37273294 -1.89384889 -9.47118308 -3.9286663 0 0 Z M-28.8125 10.375 C-33.08862396 16.45447337 -34.55253238 21.97467624 -33.8125 29.375 C-32.33687013 35.57961694 -29.40002507 40.85163967 -24.07421875 44.59765625 C-17.88786607 48.29357145 -11.8258508 49.56731377 -4.7265625 47.87890625 C1.42779436 45.7920841 6.12640005 42.45935009 9.5 36.8125 C12.65366328 30.3883711 13.32580638 24.1091578 11 17.25 C8.10284145 10.37767043 3.72154437 6.58262178 -2.8125 3.375 C-12.28628468 -0.29227149 -22.02334512 3.58584512 -28.8125 10.375 Z " fill="#A8B9FF" transform="translate(60.8125,24.625)"/>
<path d="M0 0 C3 -0.375 3 -0.375 6 0 C7.91562291 2.87343437 8.29210899 3.77503541 8.6328125 7.01171875 C8.71660156 7.76904297 8.80039062 8.52636719 8.88671875 9.30664062 C9.00466797 10.48516602 9.00466797 10.48516602 9.125 11.6875 C9.21136719 12.48478516 9.29773437 13.28207031 9.38671875 14.10351562 C9.59848472 16.06823326 9.80021473 18.03402796 10 20 C8.68 20 7.36 20 6 20 C5.67 18.35 5.34 16.7 5 15 C3.68 15 2.36 15 1 15 C0.67 16.65 0.34 18.3 0 20 C-1.32 20 -2.64 20 -4 20 C-3.71828671 17.22782133 -3.42508608 14.45769759 -3.125 11.6875 C-3.04636719 10.90181641 -2.96773437 10.11613281 -2.88671875 9.30664062 C-2.80292969 8.54931641 -2.71914063 7.79199219 -2.6328125 7.01171875 C-2.55949707 6.31522217 -2.48618164 5.61872559 -2.41064453 4.90112305 C-2 3 -2 3 0 0 Z M3 4 C1.64381501 5.12534105 1.64381501 5.12534105 1.9375 8.0625 C1.958125 9.031875 1.97875 10.00125 2 11 C2.66 11 3.32 11 4 11 C4 8.69 4 6.38 4 4 C3.67 4 3.34 4 3 4 Z " fill="#6F47FF" transform="translate(36,40)"/>
<path d="M0 0 C10 0 10 0 13 2 C13.3984375 4.3125 13.3984375 4.3125 13.375 7 C13.38273437 7.886875 13.39046875 8.77375 13.3984375 9.6875 C13.26695313 10.450625 13.13546875 11.21375 13 12 C9.5647952 14.29013653 8.014669 14.17842973 4 14 C4 15.98 4 17.96 4 20 C2.68 20 1.36 20 0 20 C0 13.4 0 6.8 0 0 Z M4 4 C4 5.98 4 7.96 4 10 C5.65 9.67 7.3 9.34 9 9 C9 7.35 9 5.7 9 4 C7.35 4 5.7 4 4 4 Z " fill="#6B49FF" transform="translate(48,40)"/>
<path d="M0 0 C1.32 0 2.64 0 4 0 C4 6.6 4 13.2 4 20 C2.68 20 1.36 20 0 20 C0 13.4 0 6.8 0 0 Z " fill="#6E48FF" transform="translate(64,40)"/>
</svg>
