
<svg version="1.1" xmlns="http://www.w3.org/2000/svg" width="64" height="64">
<path d="M0 0 C2 1 2 1 3 3 C4.02287109 2.51273438 4.02287109 2.51273438 5.06640625 2.015625 C8.50884224 0.82383624 11.29965431 0.73420045 14.9375 0.75 C16.12214844 0.74484375 17.30679688 0.7396875 18.52734375 0.734375 C22.00082283 1.00006294 24.76085468 1.75379447 28 3 C28.33 2.01 28.66 1.02 29 0 C33.14440439 2.19409644 37.40336838 5.00743484 40 9 C39.6640625 11.00390625 39.6640625 11.00390625 39 13 C38.84188612 16.05270463 38.84188612 16.05270463 40 19 C40.12117236 21.26845929 40.17540383 23.54083894 40.1875 25.8125 C40.20167969 27.01519531 40.21585938 28.21789062 40.23046875 29.45703125 C40.00124672 32.98083425 39.27030979 35.72129528 38 39 C38.99 39.33 39.98 39.66 41 40 C38.47295673 45.21202675 34.38226641 48.3880132 30 52 C28 51 28 51 27 49 C25.97712891 49.48726562 25.97712891 49.48726562 24.93359375 49.984375 C21.49115776 51.17616376 18.70034569 51.26579955 15.0625 51.25 C13.87785156 51.25515625 12.69320313 51.2603125 11.47265625 51.265625 C7.99917717 50.99993706 5.23914532 50.24620553 2 49 C1.67 49.66 1.34 50.32 1 51 C-2.53586843 50.42239677 -4.20958289 49.1727933 -6.6875 46.625 C-7.59048828 45.71621094 -7.59048828 45.71621094 -8.51171875 44.7890625 C-10 43 -10 43 -11 40 C-10.01 39.34 -9.02 38.68 -8 38 C-8.32484375 37.31808594 -8.6496875 36.63617188 -8.984375 35.93359375 C-10.17616376 32.49115776 -10.26579955 29.70034569 -10.25 26.0625 C-10.25515625 24.87785156 -10.2603125 23.69320313 -10.265625 22.47265625 C-9.99993706 18.99917717 -9.24620553 16.23914532 -8 13 C-8.99 12.67 -9.98 12.34 -11 12 C-8.47295673 6.78797325 -4.38226641 3.6119868 0 0 Z M-3.7734375 13.12109375 C-7.6641338 19.08104573 -7.71020395 25.08674887 -7 32 C-5.28110745 38.18595462 -1.31790255 42.52843784 4 46 C10.02635513 48.91340348 16.90890033 49.13679475 23.34765625 47.34765625 C29.15866114 44.73886215 33.37907756 40.35286696 36.140625 34.640625 C38.10853957 28.59376022 38.05970501 21.46587726 35.4375 15.625 C32.0999938 9.94413839 27.24600299 6.03272287 21 4 C10.29155967 2.72975742 3.11427866 4.82889915 -3.7734375 13.12109375 Z M35 9 C36 11 36 11 36 11 Z " fill="#7246FF" transform="translate(17,6)"/>
<path d="M0 0 C2.87109375 1.5234375 2.87109375 1.5234375 5 3 C4.67 3.66 4.34 4.32 4 5 C3.38125 4.835 2.7625 4.67 2.125 4.5 C-3.76008973 3.55838564 -8.95625905 3.03386792 -14.4375 5.625 C-17.22771903 8.21105666 -18.56732148 10.49789695 -20 14 C-19.67 14.33 -19.34 14.66 -19 15 C-18.76470588 20.52941176 -18.76470588 20.52941176 -20 23 C-17.26847601 27.72763768 -15.06873851 29.92642516 -10 32 C-9.67 31.67 -9.34 31.34 -9 31 C-3.47058824 30.76470588 -3.47058824 30.76470588 -1 32 C3.72763768 29.26847601 5.92642516 27.06873851 8 22 C7.67 21.67 7.34 21.34 7 21 C6.76470588 15.47058824 6.76470588 15.47058824 8 13 C7.72057545 11.32345271 7.39171753 9.65391846 7 8 C7.99 8 8.98 8 10 8 C10.268125 8.969375 10.53625 9.93875 10.8125 10.9375 C11.204375 11.948125 11.59625 12.95875 12 14 C12.99 14.33 13.98 14.66 15 15 C15 16.98 15 18.96 15 21 C14.01 21.33 13.02 21.66 12 22 C11.31974363 23.99541868 10.65509503 25.99617991 10 28 C7.27561579 32.18387575 4.60296202 34.09877656 0 36 C-0.66 36 -1.32 36 -2 36 C-2.33 36.99 -2.66 37.98 -3 39 C-4.98 39 -6.96 39 -9 39 C-9.33 38.01 -9.66 37.02 -10 36 C-11.99541868 35.31974363 -13.99617991 34.65509503 -16 34 C-20.18387575 31.27561579 -22.09877656 28.60296202 -24 24 C-24 23.34 -24 22.68 -24 22 C-24.99 21.67 -25.98 21.34 -27 21 C-27 19.02 -27 17.04 -27 15 C-26.01 14.67 -25.02 14.34 -24 14 C-23.31974363 12.00458132 -22.65509503 10.00382009 -22 8 C-16.69065535 -0.15363643 -9.1831058 -1.26066863 0 0 Z M-24 17 C-24 17.66 -24 18.32 -24 19 C-23.34 19 -22.68 19 -22 19 C-22 18.34 -22 17.68 -22 17 C-22.66 17 -23.32 17 -24 17 Z M10 17 C10 17.66 10 18.32 10 19 C10.66 19 11.32 19 12 19 C12 18.34 12 17.68 12 17 C11.34 17 10.68 17 10 17 Z M-7 34 C-7 34.66 -7 35.32 -7 36 C-6.34 36 -5.68 36 -5 36 C-5 35.34 -5 34.68 -5 34 C-5.66 34 -6.32 34 -7 34 Z " fill="#ABB9FF" transform="translate(38,14)"/>
<path d="M0 0 C0.91007812 0.00902344 1.82015625 0.01804687 2.7578125 0.02734375 C3.45648438 0.03894531 4.15515625 0.05054687 4.875 0.0625 C4.875 1.0525 4.875 2.0425 4.875 3.0625 C4.26011719 3.09988281 3.64523438 3.13726563 3.01171875 3.17578125 C1.79935547 3.27439453 1.79935547 3.27439453 0.5625 3.375 C-0.23800781 3.43300781 -1.03851563 3.49101562 -1.86328125 3.55078125 C-4.56351458 4.16171487 -5.5139478 4.82748472 -7.125 7.0625 C-7.83640218 10.52186747 -7.70995415 13.89259169 -6.125 17.0625 C-2.95509169 18.64745415 0.41563253 18.77390218 3.875 18.0625 C6.11001528 16.4514478 6.77578513 15.50101458 7.38671875 12.80078125 C7.44472656 12.00027344 7.50273438 11.19976562 7.5625 10.375 C7.62824219 9.56675781 7.69398437 8.75851563 7.76171875 7.92578125 C7.79910156 7.31089844 7.83648437 6.69601563 7.875 6.0625 C8.865 6.0625 9.855 6.0625 10.875 6.0625 C11.50239631 15.0377527 11.50239631 15.0377527 9 19.125 C5.25714851 22.53759989 2.26730075 22.39093064 -2.640625 22.35546875 C-6.09698834 21.94787873 -7.81163869 20.59973498 -10.125 18.0625 C-11.97362688 14.36524625 -11.60087094 10.09788558 -11.125 6.0625 C-7.98730674 0.93760101 -5.81234076 -0.07451719 0 0 Z " fill="#7246FF" transform="translate(32.125,20.9375)"/>
<path d="M0 0 C0.99 0.99 1.98 1.98 3 3 C2.44570313 3.49628906 1.89140625 3.99257813 1.3203125 4.50390625 C-3.31094083 8.84673633 -5.84880419 11.73237836 -7 18 C-8 19 -8 19 -10.9375 19.1875 C-14 19 -14 19 -16 17 C-16.25 14 -16.25 14 -16 11 C-14 9 -14 9 -10.8125 8.3125 C-5.98097971 7.08431942 -3.19824628 3.63569638 0 0 Z " fill="#644CFF" transform="translate(43,18)"/>
<path d="M0 0 C0.66 0.33 1.32 0.66 2 1 C0.75749216 5.97003138 -0.7002109 8.20013733 -5 11 C-7.8125 12.25 -7.8125 12.25 -10 13 C-10.33 12.34 -10.66 11.68 -11 11 C-9.92173635 9.72486237 -8.83714481 8.45507431 -7.75 7.1875 C-7.14671875 6.47980469 -6.5434375 5.77210937 -5.921875 5.04296875 C-4.07629602 3.08110329 -2.20054668 1.54330375 0 0 Z " fill="#315CFF" transform="translate(17,6)"/>
<path d="M0 0 C0.99 0.33 1.98 0.66 3 1 C0.47295673 6.21202675 -3.61773359 9.3880132 -8 13 C-8.66 12.67 -9.32 12.34 -10 12 C-8.43873668 8.16780823 -5.97133075 5.82638778 -3 3 C-2.401875 2.401875 -1.80375 1.80375 -1.1875 1.1875 C-0.795625 0.795625 -0.40375 0.40375 0 0 Z " fill="#AF2AFF" transform="translate(55,45)"/>
<path d="M0 0 C2.46800047 1.15173355 4.04783565 2.04783565 6 4 C7.299375 5.2065625 7.299375 5.2065625 8.625 6.4375 C11 9 11 9 11 12 C7.46413157 11.42239677 5.79041711 10.1727933 3.3125 7.625 C2.71050781 7.01914062 2.10851562 6.41328125 1.48828125 5.7890625 C0 4 0 4 -1 1 C-0.67 0.67 -0.34 0.34 0 0 Z " fill="#AC2BFF" transform="translate(7,45)"/>
<path d="M0 0 C4.14440439 2.19409644 8.40336838 5.00743484 11 9 C10.6640625 11.19140625 10.6640625 11.19140625 10 13 C9.29875 12.278125 8.5975 11.55625 7.875 10.8125 C5.07229255 8.00176187 2.07737208 5.50483774 -1 3 C-0.67 2.01 -0.34 1.02 0 0 Z " fill="#3361FF" transform="translate(46,6)"/>
<path d="M0 0 C1.65 0.33 3.3 0.66 5 1 C4.67 2.65 4.34 4.3 4 6 C2.35 5.67 0.7 5.34 -1 5 C-0.67 3.35 -0.34 1.7 0 0 Z " fill="#A7AFFF" transform="translate(30,29)"/>
</svg>
